<mxfile host="app.diagrams.net" modified="2023-12-02T13:04:59.198Z" agent="Mozilla/5.0 (Windows NT 10.0; Win64; x64; rv:109.0) Gecko/20100101 Firefox/119.0" etag="qLxvsKLQGTijxieU8jWX" version="22.1.5" type="github">
  <diagram name="Page-1" id="pjqLWg9D4QJs4aynukWV">
    <mxGraphModel dx="1434" dy="754" grid="1" gridSize="10" guides="1" tooltips="1" connect="1" arrows="1" fold="1" page="1" pageScale="1" pageWidth="850" pageHeight="1100" math="0" shadow="0">
      <root>
        <mxCell id="0" />
        <mxCell id="1" parent="0" />
        <mxCell id="_Esm-FiioBOgBzFB0kT--1" value="&lt;div align=&quot;left&quot;&gt;Variation 1:&lt;br&gt;&amp;nbsp; - Single Time window&lt;/div&gt;&lt;div align=&quot;left&quot;&gt;&amp;nbsp; &amp;nbsp; - All time, last 24 hours, etc&lt;br&gt;&amp;nbsp; - Exact Count not required&lt;/div&gt;&lt;div align=&quot;left&quot;&gt;&amp;nbsp; - As real-time as possible&lt;br&gt;&lt;/div&gt;" style="text;html=1;align=left;verticalAlign=middle;resizable=0;points=[];autosize=1;strokeColor=none;fillColor=none;" vertex="1" parent="1">
          <mxGeometry x="40" y="138" width="180" height="90" as="geometry" />
        </mxCell>
      </root>
    </mxGraphModel>
  </diagram>
</mxfile>
